<?xml version="1.0"?>
<svg xmlns="http://www.w3.org/2000/svg" xmlns:xlink="http://www.w3.org/1999/xlink" version="1.1" id="Capa_1" x="0px" y="0px" viewBox="0 0 496 496" style="enable-background:new 0 0 496 496;" xml:space="preserve" width="512px" height="512px" class=""><g><path style="fill:#00B7FF" d="M275.568,214.856c1.2-2.496,2.128-5,3.144-7.512C269.392,191.016,264,172.152,264,152  c0-28.632,10.832-54.672,28.512-74.472l1.064-11.264L256.08,29.808c-2.44-2.368-6.128-2.944-9.16-1.424l-32.064,16.04  c-3.976-1.904-7.984-3.576-11.96-5.008l-11.32-33.952C190.496,2.2,187.448,0,184,0h-48c-3.448,0-6.504,2.2-7.584,5.472  l-11.32,33.952c-3.976,1.432-7.984,3.104-11.96,5.008l-32.064-16.04c-3.088-1.552-6.792-0.944-9.24,1.496L29.888,63.832  c-2.44,2.44-3.04,6.16-1.504,9.232l16.04,32.064c-1.904,3.976-3.576,7.984-5.008,11.96l-33.952,11.32C2.2,129.504,0,132.552,0,136  v48c0,3.448,2.2,6.496,5.472,7.584l33.952,11.32c1.44,3.992,3.112,7.992,5.008,11.952l-16.04,32.072  c-1.536,3.08-0.936,6.8,1.504,9.232l33.944,33.944c2.456,2.456,6.168,3.04,9.232,1.504l32.064-16.04  c3.976,1.904,7.984,3.576,11.96,5.008l11.32,33.952C129.496,317.8,132.552,320,136,320h48c3.448,0,6.496-2.2,7.584-5.472  l11.32-33.952c3.976-1.432,7.984-3.104,11.96-5.008l32.064,16.04c3.072,1.528,6.792,0.944,9.232-1.504l33.944-33.944  c2.44-2.44,3.04-6.16,1.504-9.232L275.568,214.856z" data-original="#F0BC5E" class="active-path" data-old_color="#F0BC5E"/><path d="M496,152c0-66.168-53.832-120-120-120S256,85.832,256,152c0,57.952,41.288,106.432,96,117.584V320h-16v136  c0,22.056,17.944,40,40,40s40-17.944,40-40V320h-16v-50.416C454.712,258.432,496,209.952,496,152z M272,152  c0-57.344,46.656-104,104-104s104,46.656,104,104s-46.656,104-104,104S272,209.344,272,152z M400,456c0,13.232-10.768,24-24,24  s-24-10.768-24-24V336h48V456z M384,320h-16v-48.408c2.656,0.176,5.296,0.408,8,0.408s5.344-0.232,8-0.408V320z" data-original="#000000" class="" style="fill:#000000"/><path d="M428.816,222.4l-9.616-12.8c-12.536,9.424-27.472,14.4-43.2,14.4c-39.704,0-72-32.296-72-72s32.296-72,72-72  s72,32.296,72,72c0,18.96-7.312,36.856-20.576,50.4l11.424,11.2C455.072,197.048,464,175.168,464,152c0-48.52-39.48-88-88-88  s-88,39.48-88,88s39.48,88,88,88C395.216,240,413.488,233.912,428.816,222.4z" data-original="#000000" class="" style="fill:#000000"/><circle cx="376" cy="456" r="8" data-original="#000000" class="" style="fill:#000000"/><path d="M160,256c52.936,0,96-43.064,96-96s-43.064-96-96-96s-96,43.064-96,96S107.064,256,160,256z M94.488,114.224  c3.328,3.176,8.344,7.184,15.544,10.928c-2.864,8.176-4.88,17.128-5.624,26.848h-24C81.8,138.04,86.832,125.152,94.488,114.224z   M239.592,152h-24.056c-0.904-9.248-3.28-18.096-6.576-26.368c7.704-3.872,13.072-8.088,16.552-11.408  C233.168,125.152,238.2,138.04,239.592,152z M225.512,205.776c-3.328-3.176-8.344-7.184-15.544-10.928  c2.864-8.176,4.88-17.128,5.624-26.848h24C238.2,181.96,233.168,194.848,225.512,205.776z M168,200.256  c7.96,0.496,14.736,1.728,20.536,3.328c-6.312,11.6-14.072,20.728-20.536,27.096V200.256z M168,184.256V168h31.576  c-0.688,7.48-2.312,14.424-4.544,20.872C187.456,186.56,178.52,184.848,168,184.256z M168,152v-16.256  c10.056-0.56,18.672-2.144,26.032-4.296c2.616,6.544,4.616,13.424,5.48,20.552H168z M168,119.744v-28.56  c5.968,6.616,12.952,15.416,18.912,25.696C181.488,118.264,175.208,119.296,168,119.744z M152,119.744  c-7.96-0.496-14.736-1.728-20.536-3.328c6.312-11.6,14.072-20.728,20.536-27.096V119.744z M152,135.744V152h-31.576  c0.688-7.48,2.312-14.424,4.544-20.872C132.544,133.44,141.48,135.152,152,135.744z M152,168v16.256  c-10.056,0.56-18.672,2.144-26.032,4.296c-2.616-6.544-4.616-13.424-5.48-20.552H152z M152,200.256v28.56  c-5.968-6.616-12.952-15.416-18.912-25.696C138.512,201.736,144.792,200.704,152,200.256z M137.584,236.744  c-12.4-3.632-23.536-10.184-32.664-18.872c2.296-2.328,6.448-5.816,12.96-9.12C123.976,219.752,131.136,229.304,137.584,236.744z   M203.656,209.552c5.64,3.064,9.312,6.184,11.424,8.32c-8.392,7.992-18.488,14.168-29.712,17.936  C191.6,228.872,198.168,220.088,203.656,209.552z M202.112,111.248c-6.088-11-13.256-20.56-19.696-27.992  c12.4,3.632,23.536,10.184,32.664,18.872C212.784,104.456,208.632,107.944,202.112,111.248z M116.344,110.448  c-5.64-3.064-9.312-6.184-11.424-8.32c8.392-7.992,18.488-14.168,29.712-17.936C128.4,91.128,121.832,99.912,116.344,110.448z   M104.464,168c0.904,9.248,3.28,18.096,6.576,26.368c-7.704,3.872-13.072,8.088-16.552,11.408C86.832,194.848,81.8,181.96,80.4,168  H104.464z" data-original="#000000" class="" style="fill:#000000"/><path d="M288,400c-7.04,0-13.328,3.104-17.72,7.952l-54.408-22.672c0.024-0.432,0.128-0.84,0.128-1.28c0-13.232-10.768-24-24-24  s-24,10.768-24,24c0,3.328,0.688,6.504,1.92,9.384l-62.736,57.504C103.824,449.104,100.056,448,96,448  c-2.848,0-5.536,0.584-8.072,1.496l-43.464-53.128C46.664,392.744,48,388.544,48,384c0-13.232-10.768-24-24-24S0,370.768,0,384  s10.768,24,24,24c2.848,0,5.544-0.584,8.08-1.496l43.464,53.128C73.344,463.248,72,467.456,72,472c0,13.232,10.768,24,24,24  s24-10.768,24-24c0-3.328-0.688-6.504-1.92-9.392l62.736-57.504c3.36,1.792,7.128,2.896,11.184,2.896  c7.04,0,13.328-3.104,17.72-7.952l54.408,22.672c-0.024,0.432-0.128,0.84-0.128,1.28c0,13.232,10.768,24,24,24s24-10.768,24-24  S301.232,400,288,400z M24,392c-4.416,0-8-3.584-8-8s3.584-8,8-8s8,3.584,8,8S28.416,392,24,392z M96,480c-4.416,0-8-3.584-8-8  s3.584-8,8-8s8,3.584,8,8S100.416,480,96,480z M192,392c-4.416,0-8-3.584-8-8s3.584-8,8-8s8,3.584,8,8S196.416,392,192,392z   M288,432c-4.416,0-8-3.584-8-8s3.584-8,8-8s8,3.584,8,8S292.416,432,288,432z" data-original="#000000" class="" style="fill:#000000"/></g> </svg>
