<?xml version="1.0"?>
<svg xmlns="http://www.w3.org/2000/svg" xmlns:xlink="http://www.w3.org/1999/xlink" version="1.1" id="Layer_1_1_" x="0px" y="0px" viewBox="0 0 64 64" style="enable-background:new 0 0 64 64;" xml:space="preserve" width="512px" height="512px" class=""><g><g>
	<g>
		<path style="fill:#00B7FF" d="M59,23H41V11h18V23z" data-original="#F0BC5E" class="active-path" data-old_color="#00BFFF"/>
	</g>
	<g>
		<path style="fill:#00B7FF" d="M59,35H41v-9h18V35z" data-original="#F0BC5E" class="active-path" data-old_color="#00BFFF"/>
	</g>
	<g>
		<rect x="5" y="23" style="fill:#00B7FF" width="32" height="12" data-original="#F0BC5E" class="active-path" data-old_color="#00BFFF"/>
	</g>
	<g>
		<path style="fill:#00B7FF" d="M19,47H5V37h14V47z" data-original="#F0BC5E" class="active-path" data-old_color="#00BFFF"/>
	</g>
	<g>
		<path style="fill:#00B7FF" d="M35,47H21V37h14V47z" data-original="#F0BC5E" class="active-path" data-old_color="#00BFFF"/>
	</g>
	<g>
		<path d="M58,1H42c-2.757,0-5,2.243-5,5v13H6c-2.757,0-5,2.243-5,5v28c0,2.757,2.243,5,5,5h13v4h-4v2h26v-2h-4v-4h13    c2.757,0,5-2.243,5-5v-5h3c2.757,0,5-2.243,5-5V6C63,3.243,60.757,1,58,1z M42,3h16c1.654,0,3,1.346,3,3v1H39V6    C39,4.346,40.346,3,42,3z M61,9v28H39V9H61z M35,61H21v-4h14V61z M50,55H6c-1.654,0-3-1.346-3-3v-1h50v1    C53,53.654,51.654,55,50,55z M53,49H3V24c0-1.654,1.346-3,3-3h31v21c0,2.757,2.243,5,5,5h11V49z M58,45H42c-1.654,0-3-1.346-3-3    v-3h22v3C61,43.654,59.654,45,58,45z" data-original="#000000" class="" style="fill:#000000"/>
		<rect x="47" y="41" width="6" height="2" data-original="#000000" class="" style="fill:#000000"/>
		<rect x="57" y="33" width="2" height="2" data-original="#000000" class="" style="fill:#000000"/>
		<rect x="41" y="33" width="14" height="2" data-original="#000000" class="" style="fill:#000000"/>
		<rect x="41" y="29" width="18" height="2" data-original="#000000" class="" style="fill:#000000"/>
		<rect x="41" y="25" width="18" height="2" data-original="#000000" class="" style="fill:#000000"/>
		<rect x="21" y="37" width="14" height="2" data-original="#000000" class="" style="fill:#000000"/>
		<rect x="21" y="41" width="14" height="2" data-original="#000000" class="" style="fill:#000000"/>
		<rect x="21" y="45" width="10" height="2" data-original="#000000" class="" style="fill:#000000"/>
		<rect x="33" y="45" width="2" height="2" data-original="#000000" class="" style="fill:#000000"/>
	</g>
</g></g> </svg>
