<?xml version="1.0" encoding="iso-8859-1"?>
<!-- Generator: Adobe Illustrator 19.0.0, SVG Export Plug-In . SVG Version: 6.00 Build 0)  -->
<svg version="1.1" id="Capa_1" xmlns="http://www.w3.org/2000/svg" xmlns:xlink="http://www.w3.org/1999/xlink" x="0px" y="0px"
	 viewBox="0 0 512.003 512.003" style="enable-background:new 0 0 512.003 512.003;" xml:space="preserve">
<g>
	<g>
		<circle cx="162.931" cy="178.101" r="11.1"/>
	</g>
</g>
<g>
	<g>
		<circle cx="238.371" cy="178.101" r="11.1"/>
	</g>
</g>
<g>
	<g>
		<path d="M504.213,390.828c0-13.021-10.595-23.616-23.617-23.616h-55.821c6.581-12.728,10.142-26.717,10.396-41.115
			c0.048-2.727,0.027-5.523,0.004-8.483c-0.014-1.836-0.029-3.776-0.029-5.873c-0.001-12.268-9.954-22.253-22.204-22.292
			c-2.333-0.031-9.942,0.377-15.939,6.641c-5.102,5.328-5.931,11.585-5.971,14.842c-0.001,0.055-0.011,0.173-0.072,0.359
			c-3.165,9.578-7.291,18.645-12.263,26.952c-2.146,3.586-0.979,8.234,2.607,10.38c3.588,2.147,8.233,0.979,10.38-2.607
			c5.541-9.259,10.133-19.343,13.646-29.975c0.535-1.618,0.816-3.274,0.836-4.923c0.013-1.026,0.259-2.983,1.77-4.559
			c1.798-1.878,4.235-1.976,4.72-1.976c0.116,0.001,0.148,0.002,0.214,0.002c3.938,0,7.141,3.21,7.141,7.157
			c0,2.138,0.015,4.117,0.03,5.988c0.023,2.987,0.042,5.565-0.003,8.102c-0.281,15.98-5.438,31.376-14.914,44.523
			c-1.661,2.305-1.891,5.346-0.597,7.874c1.295,2.529,3.896,4.119,6.737,4.119h69.333c4.677,0,8.482,3.804,8.482,8.481v0.521
			c0,4.677-3.805,8.482-8.482,8.482h-13.894c-4.179,0-7.568,3.388-7.568,7.568s3.388,7.568,7.568,7.568h13.894
			c4.677,0,8.482,3.805,8.482,8.482v0.109c0,4.677-3.805,8.481-8.482,8.481h-13.894c-4.179,0-7.568,3.388-7.568,7.568
			s3.388,7.568,7.568,7.568h13.894c4.677,0,8.482,3.805,8.482,8.482v0.629c0,4.677-3.805,8.481-8.482,8.481h-13.894
			c-4.179,0-7.568,3.388-7.568,7.568s3.388,7.568,7.568,7.568h13.894c4.677,0,8.482,3.805,8.482,8.482s-3.805,8.482-8.482,8.482
			H376.198c-10.53,0-20.504-4.025-28.084-11.333l-3.951-3.809v-88.825c6.152-3.521,12.013-7.525,17.459-11.956
			c3.544-2.883,6.976-5.994,10.201-9.248c2.942-2.968,2.922-7.76-0.046-10.702c-2.967-2.943-7.759-2.922-10.702,0.046
			c-2.848,2.873-5.877,5.619-9.004,8.163c-3.112,2.531-6.379,4.904-9.769,7.109c-2.781-5.396-8.399-9.102-14.877-9.102h-18.589
			c-0.02-0.005-0.038-0.012-0.058-0.017l-24.613-5.76c-15.209-3.558-25.83-16.952-25.83-32.573v-15.87
			c11.378-6.907,21.377-15.866,29.49-26.354h0.597c22.939,0,41.602-18.663,41.602-41.602c0-0.26-0.013-0.517-0.039-0.77
			c11.324-2.734,19.764-12.946,19.764-25.097v-54.262c0-14.238-11.583-25.822-25.821-25.822h-13.63v-0.045
			c0-4.18-3.388-7.568-7.568-7.568c-1.402,0-2.711,0.388-3.837,1.053c-0.098,0.052-0.203,0.114-0.315,0.188
			c-12.332,8.092-40.131,12.567-54.631,12.567c-36.118,0-70.887-12.896-100.359-36.455l-35.6-38.376
			c3.428-5.327,7.097-10.293,10.961-14.799c2.721-3.173,2.355-7.95-0.818-10.672c-3.173-2.72-7.951-2.355-10.671,0.818
			c-5.57,6.495-10.77,13.801-15.456,21.717v0.001c-7.841,12.598-13.341,26.327-16.346,40.81c-2.19,10.554-2.981,21.308-2.412,32.062
			C62.952,143.784,55.5,153.488,55.5,164.906v0.401c-20.355-15.386-32.575-39.471-32.575-65.503
			c0-45.287,36.843-82.129,82.13-82.129c9.702,0,19.3,1.721,28.321,5.027c-1.861,1.254-3.721,2.556-5.573,3.952
			c-3.338,2.516-4.005,7.26-1.49,10.599c2.515,3.337,7.258,4.005,10.598,1.49c33.199-25.017,69.808-23.597,70.159-23.581
			c25.665,1.325,49.939,12.891,72.146,34.374c19.704,19.06,34.394,46.128,43.66,80.454c0.911,3.374,3.965,5.597,7.302,5.597
			c0.652,0,1.316-0.086,1.977-0.263c4.035-1.09,6.423-5.244,5.334-9.279c-9.988-37-26.053-66.402-47.748-87.387
			c-24.913-24.1-52.464-37.09-81.889-38.611c-1.378-0.068-28.099-1.212-58.206,13.309c-13.72-7.08-29.045-10.814-44.591-10.814
			c-53.633,0-97.266,43.633-97.266,97.265c0,34.549,18.171,66.2,47.71,83.698v35.666c0,14.238,11.583,25.822,25.821,25.822h16.353
			c6.937,30.209,26.621,55.605,53.062,70.21v13.662c0,15.62-10.622,29.014-25.831,32.573l-41.315,9.667
			c-37.481,8.769-63.658,41.779-63.658,80.272v53.058c0,4.18,3.388,7.568,7.568,7.568h222.342h77.583
			c7.186,0,13.31-4.56,15.678-10.932c9.532,7.084,21.045,10.932,33.096,10.932h104.398c13.023,0,23.617-10.595,23.617-23.617
			c0-6.191-2.395-11.833-6.306-16.05c3.911-4.215,6.306-9.858,6.306-16.049v-0.629c0-6.191-2.395-11.833-6.306-16.05
			c3.911-4.215,6.306-9.858,6.306-16.049v-0.109c0-6.191-2.395-11.833-6.306-16.05c3.911-4.216,6.306-9.859,6.306-16.05V390.828z
			 M310.297,220.882v-66.66h13.63c5.892,0,10.686,4.794,10.686,10.686v54.262c0,5.893-4.794,10.686-10.686,10.686h-13.63V220.882z
			 M307.574,244.992h7.316c0,0.015-0.002,0.03-0.002,0.045c0,10.943-6.676,20.356-16.168,24.381
			C302.606,261.755,305.605,253.568,307.574,244.992z M94.95,220.882v8.975H81.32c-5.892,0-10.686-4.794-10.686-10.686v-54.262
			c0-5.893,4.794-10.686,10.686-10.686h13.63V220.882z M101.091,131.612c-1.204,0.23-2.304,0.746-3.232,1.474
			c-3.143,1.372-6.355,2.615-9.635,3.704c-0.235-8.521,0.519-17.027,2.255-25.39c1.881-9.065,4.887-17.792,8.945-26.069
			c8.456,10.852,17.677,20.632,27.515,29.284c-9.263,7.885-17.426,12.643-20.931,14.525
			C104.394,130.007,102.75,130.824,101.091,131.612z M110.085,220.882v-74.228v-2.586c1.035-0.52,2.066-1.047,3.085-1.595
			c4.231-2.273,14.454-8.231,25.691-18.163c31.101,23.36,67.373,36.106,105.085,36.106c12.721,0,34.782-2.977,51.215-9.269v69.734
			c0,18.672-5.564,36.066-15.113,50.622h-67.069c-4.179,0-7.568,3.388-7.568,7.568s3.388,7.568,7.568,7.568h54.686
			c-16.727,16.547-39.711,26.781-65.042,26.781C151.598,313.421,110.085,271.908,110.085,220.882z M242.273,374.78v51.409
			c-12.068,4.359-24.738,6.57-37.739,6.57c-18.282,0-36.405-4.531-52.409-13.102c-3.684-1.973-8.271-0.587-10.244,3.098
			c-1.973,3.684-0.586,8.271,3.098,10.244c18.195,9.745,38.789,14.896,59.555,14.896c12.932,0,25.58-1.934,37.739-5.742v54.714
			H102.994v-19.146c0-4.143-3.358-7.5-7.5-7.5c-4.142,0-7.5,3.357-7.5,7.5v19.146H35.067v-45.49
			c0-31.427,21.371-58.375,51.971-65.535l7.679-1.797c6.093,10.684,13.682,20.403,22.635,28.942
			c1.466,1.397,3.345,2.091,5.222,2.091c1.997,0,3.991-0.785,5.478-2.345c2.884-3.024,2.771-7.814-0.254-10.699
			c-6.788-6.474-12.687-13.717-17.621-21.606l18.176-4.253c22.09-5.168,37.518-24.622,37.518-47.31v-6.77
			c11.474,4.179,23.851,6.463,36.753,6.463c14.348,0,28.045-2.828,40.574-7.944v8.252c0,15.446,7.156,29.388,18.691,38.349h-12.048
			v-0.003C245.662,367.212,242.273,370.6,242.273,374.78z M329.027,388.33c0,0.012,0,0.024,0,0.035v106.897
			c0,0.884-0.719,1.603-1.603,1.603h-70.016V382.347h70.016c0.884,0,1.603,0.719,1.603,1.603V388.33z"/>
	</g>
</g>
<g>
	<g>
		<path d="M236.274,243.813c-2.929-2.928-7.678-2.928-10.606,0c-6.322,6.322-14.727,9.804-23.667,9.804s-17.346-3.481-23.667-9.804
			c-2.929-2.928-7.678-2.928-10.606,0c-2.929,2.93-2.929,7.678,0,10.607c9.155,9.154,21.327,14.196,34.274,14.196
			c12.947,0,25.119-5.042,34.273-14.196C239.203,251.49,239.203,246.742,236.274,243.813z"/>
	</g>
</g>
<g>
	<g>
		<circle cx="304.071" cy="404.241" r="6.701"/>
	</g>
</g>
<g>
</g>
<g>
</g>
<g>
</g>
<g>
</g>
<g>
</g>
<g>
</g>
<g>
</g>
<g>
</g>
<g>
</g>
<g>
</g>
<g>
</g>
<g>
</g>
<g>
</g>
<g>
</g>
<g>
</g>
</svg>
